<svg width="1080" height="1080" viewBox="0 0 1080 1080" fill="none" xmlns="http://www.w3.org/2000/svg">
<rect width="1080" height="1080" rx="540" fill="#F05D73"/>
<path d="M311.88 520.28C307.187 520.28 303.827 519.587 301.8 518.2C299.773 516.813 298.547 515 298.12 512.76C297.693 510.52 297.48 508.12 297.48 505.56V423C297.48 420.653 297.693 418.413 298.12 416.28C298.547 414.04 299.773 412.227 301.8 410.84C303.827 409.347 307.293 408.6 312.2 408.6C315.507 408.6 317.907 408.813 319.4 409.24C321 409.667 322.12 410.2 322.76 410.84C323.507 411.48 324.253 412.227 325 413.08L358.12 455.64H357.16L390.12 413.24C391.187 412.067 392.147 411.16 393 410.52C393.96 409.88 395.187 409.4 396.68 409.08C398.28 408.76 400.52 408.6 403.4 408.6C408.2 408.6 411.613 409.347 413.64 410.84C415.667 412.227 416.893 414.04 417.32 416.28C417.747 418.52 417.96 420.867 417.96 423.32V505.88C417.96 508.227 417.747 510.52 417.32 512.76C416.893 515 415.667 516.813 413.64 518.2C411.613 519.587 408.147 520.28 403.24 520.28C398.44 520.28 395.027 519.587 393 518.2C390.973 516.707 389.747 514.84 389.32 512.6C388.893 510.253 388.68 507.907 388.68 505.56V460.12L369.96 485.56C369.533 486.093 368.893 486.893 368.04 487.96C367.187 489.027 365.96 489.987 364.36 490.84C362.76 491.693 360.52 492.12 357.64 492.12C354.76 492.12 352.467 491.693 350.76 490.84C349.16 489.987 347.933 489.08 347.08 488.12C346.227 487.053 345.587 486.2 345.16 485.56L326.6 460.28V505.88C326.6 508.227 326.387 510.52 325.96 512.76C325.533 515 324.307 516.813 322.28 518.2C320.253 519.587 316.787 520.28 311.88 520.28ZM468.455 522.2C460.455 522.2 453.682 520.92 448.135 518.36C442.588 515.693 438.108 512.28 434.695 508.12C431.282 503.853 428.775 499.267 427.175 494.36C425.575 489.453 424.775 484.707 424.775 480.12C424.775 471.693 426.642 464.28 430.375 457.88C434.108 451.48 439.282 446.467 445.895 442.84C452.508 439.213 460.082 437.4 468.615 437.4C475.228 437.4 480.882 438.467 485.575 440.6C490.268 442.733 494.055 445.453 496.935 448.76C499.922 452.067 502.108 455.587 503.495 459.32C504.882 463.053 505.575 466.52 505.575 469.72C505.575 475.8 504.082 480.44 501.095 483.64C498.108 486.84 494.268 488.44 489.575 488.44H455.495C455.922 490.147 456.775 491.64 458.055 492.92C459.442 494.093 461.148 495.053 463.175 495.8C465.202 496.44 467.388 496.76 469.735 496.76C472.082 496.76 474.162 496.653 475.975 496.44C477.788 496.12 479.335 495.747 480.615 495.32C482.002 494.893 483.228 494.467 484.295 494.04C485.468 493.613 486.482 493.293 487.335 493.08C488.295 492.76 489.202 492.6 490.055 492.6C491.975 492.6 493.735 493.24 495.335 494.52C496.935 495.8 498.375 497.72 499.655 500.28C500.402 501.667 500.935 503 501.255 504.28C501.575 505.453 501.735 506.573 501.735 507.64C501.735 510.84 500.402 513.507 497.735 515.64C495.175 517.773 491.442 519.373 486.535 520.44C481.628 521.613 475.602 522.2 468.455 522.2ZM455.495 473.4H473.415C474.908 473.4 475.975 473.08 476.615 472.44C477.362 471.8 477.735 470.84 477.735 469.56C477.735 468.173 477.308 467 476.455 466.04C475.708 465.08 474.642 464.387 473.255 463.96C471.868 463.427 470.215 463.16 468.295 463.16C465.735 463.16 463.495 463.693 461.575 464.76C459.655 465.72 458.162 467 457.095 468.6C456.135 470.093 455.602 471.693 455.495 473.4ZM549.12 520.12C544 520.12 539.2 519.107 534.72 517.08C530.347 515.053 526.507 512.227 523.2 508.6C519.893 504.867 517.333 500.547 515.52 495.64C513.707 490.733 512.8 485.4 512.8 479.64V453.56C512.8 451.107 513.013 448.813 513.44 446.68C513.867 444.44 515.093 442.627 517.12 441.24C519.147 439.747 522.56 439 527.36 439C532.267 439 535.68 439.747 537.6 441.24C539.627 442.627 540.853 444.44 541.28 446.68C541.707 448.92 541.92 451.267 541.92 453.72V479.64C541.92 482.093 542.347 484.173 543.2 485.88C544.16 487.587 545.493 488.92 547.2 489.88C549.013 490.733 551.093 491.16 553.44 491.16C555.787 491.16 557.813 490.68 559.52 489.72C561.227 488.76 562.56 487.427 563.52 485.72C564.48 484.013 564.96 481.987 564.96 479.64V453.4C564.96 450.947 565.173 448.653 565.6 446.52C566.027 444.28 567.253 442.467 569.28 441.08C571.307 439.693 574.72 439 579.52 439C584.427 439 587.84 439.747 589.76 441.24C591.787 442.627 593.013 444.44 593.44 446.68C593.867 448.92 594.08 451.213 594.08 453.56V506.2C594.08 508.547 593.867 510.787 593.44 512.92C593.013 515.053 591.787 516.813 589.76 518.2C587.733 519.587 584.32 520.28 579.52 520.28C576 520.28 573.227 519.853 571.2 519C569.28 518.253 567.893 517.293 567.04 516.12C566.187 514.84 565.653 513.613 565.44 512.44C565.333 511.16 565.28 510.093 565.28 509.24L568 510.04C568 510.04 567.573 510.573 566.72 511.64C565.867 512.6 564.587 513.773 562.88 515.16C561.28 516.44 559.307 517.613 556.96 518.68C554.72 519.64 552.107 520.12 549.12 520.12ZM330.12 682.04C325.64 682.04 321.587 681.4 317.96 680.12C314.333 678.84 311.24 677.347 308.68 675.64C306.227 673.933 304.307 672.44 302.92 671.16C301.64 669.88 301 669.24 301 669.24C299.613 667.747 298.333 666.253 297.16 664.76C295.987 663.16 295.4 661.347 295.4 659.32C295.4 657.613 295.827 655.907 296.68 654.2C297.64 652.387 299.08 650.467 301 648.44C302.813 646.52 304.573 645.08 306.28 644.12C307.987 643.16 309.693 642.68 311.4 642.68C313.533 642.68 315.453 643.32 317.16 644.6C318.973 645.88 320.573 647.267 321.96 648.76C322.387 649.08 322.973 649.56 323.72 650.2C324.467 650.733 325.427 651.267 326.6 651.8C327.773 652.227 329.213 652.44 330.92 652.44C332.627 652.44 334.173 652.173 335.56 651.64C337.053 651 338.28 650.147 339.24 649.08C340.307 647.907 341.107 646.573 341.64 645.08C342.173 643.48 342.44 641.72 342.44 639.8V584.28C342.44 581.827 342.653 579.373 343.08 576.92C343.613 574.467 344.893 572.44 346.92 570.84C349.053 569.24 352.573 568.44 357.48 568.44C362.173 568.44 365.48 569.187 367.4 570.68C369.427 572.173 370.653 574.093 371.08 576.44C371.613 578.68 371.88 580.973 371.88 583.32V640.92C371.88 646.573 370.813 651.907 368.68 656.92C366.547 661.827 363.56 666.2 359.72 670.04C355.88 673.773 351.4 676.707 346.28 678.84C341.267 680.973 335.88 682.04 330.12 682.04ZM447.76 680.12C442.96 680.12 439.387 679.32 437.04 677.72C434.8 676.12 433.733 674.307 433.84 672.28H436.08C435.547 673.027 434.48 674.04 432.88 675.32C431.387 676.493 429.36 677.613 426.8 678.68C424.24 679.64 421.093 680.12 417.36 680.12C412.56 680.12 407.92 679.053 403.44 676.92C399.067 674.68 395.12 671.64 391.6 667.8C388.187 663.96 385.467 659.64 383.44 654.84C381.413 649.933 380.4 644.813 380.4 639.48C380.4 634.253 381.413 629.24 383.44 624.44C385.467 619.64 388.24 615.373 391.76 611.64C395.28 607.8 399.227 604.813 403.6 602.68C407.973 600.44 412.56 599.32 417.36 599.32C420.987 599.32 424.027 599.853 426.48 600.92C429.04 601.987 431.067 603.16 432.56 604.44C434.16 605.72 435.227 606.787 435.76 607.64H434C433.893 604.973 434.96 602.893 437.2 601.4C439.547 599.907 443.12 599.16 447.92 599.16C452.72 599.16 456.08 599.907 458 601.4C460.027 602.787 461.253 604.6 461.68 606.84C462.107 609.08 462.32 611.373 462.32 613.72V665.72C462.32 668.067 462.107 670.36 461.68 672.6C461.253 674.84 460.027 676.653 458 678.04C456.08 679.427 452.667 680.12 447.76 680.12ZM421.36 651.16C423.387 651.16 425.2 650.627 426.8 649.56C428.507 648.493 429.84 647.107 430.8 645.4C431.867 643.587 432.4 641.667 432.4 639.64C432.4 637.507 431.867 635.587 430.8 633.88C429.84 632.173 428.507 630.787 426.8 629.72C425.093 628.653 423.173 628.12 421.04 628.12C418.907 628.12 416.933 628.653 415.12 629.72C413.413 630.787 412.027 632.227 410.96 634.04C409.893 635.747 409.36 637.667 409.36 639.8C409.36 641.827 409.893 643.693 410.96 645.4C412.133 647.107 413.627 648.493 415.44 649.56C417.253 650.627 419.227 651.16 421.36 651.16ZM486.263 680.44C481.463 680.44 478.049 679.747 476.023 678.36C473.996 676.867 472.769 675 472.342 672.76C472.023 670.413 471.863 668.067 471.863 665.72V613.56C471.863 611.107 472.076 608.813 472.503 606.68C472.929 604.44 474.156 602.627 476.183 601.24C478.209 599.853 481.623 599.16 486.423 599.16C491.116 599.16 494.423 599.8 496.343 601.08C498.369 602.36 499.596 603.8 500.023 605.4C500.449 606.893 500.663 608.067 500.663 608.92L498.103 607.96C498.103 607.96 498.529 607.48 499.383 606.52C500.236 605.56 501.463 604.44 503.063 603.16C504.769 601.88 506.743 600.76 508.983 599.8C511.329 598.84 513.943 598.36 516.823 598.36C517.783 598.36 518.956 598.467 520.343 598.68C521.836 598.787 523.383 599.053 524.983 599.48C526.689 599.907 528.236 600.547 529.623 601.4C531.116 602.253 532.289 603.373 533.143 604.76C534.103 606.147 534.583 607.853 534.583 609.88C534.583 615.213 533.409 619.747 531.063 623.48C528.823 627.213 525.836 629.08 522.103 629.08C520.076 629.08 518.636 628.973 517.783 628.76C516.929 628.44 516.289 628.173 515.863 627.96C515.543 627.64 515.116 627.373 514.583 627.16C514.156 626.84 513.303 626.68 512.023 626.68C510.423 626.68 508.929 626.893 507.543 627.32C506.263 627.64 505.089 628.173 504.023 628.92C503.063 629.667 502.316 630.573 501.783 631.64C501.249 632.6 500.983 633.667 500.983 634.84V666.04C500.983 668.387 500.769 670.68 500.343 672.92C499.916 675.16 498.689 676.973 496.663 678.36C494.636 679.747 491.169 680.44 486.263 680.44ZM570.641 680.12C565.841 680.12 561.201 679.053 556.721 676.92C552.348 674.68 548.401 671.693 544.881 667.96C541.468 664.12 538.748 659.747 536.721 654.84C534.695 649.933 533.681 644.813 533.681 639.48C533.681 634.36 534.695 629.4 536.721 624.6C538.748 619.8 541.521 615.533 545.041 611.8C548.561 607.96 552.508 604.92 556.881 602.68C561.361 600.44 565.948 599.32 570.641 599.32C575.761 599.32 580.188 600.44 583.921 602.68C587.655 604.813 590.748 607.747 593.201 611.48C595.655 615.213 597.468 619.48 598.641 624.28C599.921 629.08 600.615 634.04 600.721 639.16C600.828 644.387 600.295 649.453 599.121 654.36C597.948 659.16 596.135 663.533 593.681 667.48C591.228 671.32 588.081 674.413 584.241 676.76C580.508 679 575.975 680.12 570.641 680.12ZM574.481 651.32C576.508 651.32 578.375 650.787 580.081 649.72C581.788 648.653 583.175 647.267 584.241 645.56C585.308 643.747 585.841 641.827 585.841 639.8C585.841 637.667 585.308 635.747 584.241 634.04C583.281 632.333 581.948 630.947 580.241 629.88C578.535 628.813 576.561 628.28 574.321 628.28C572.188 628.28 570.215 628.813 568.401 629.88C566.695 630.84 565.308 632.227 564.241 634.04C563.281 635.747 562.801 637.667 562.801 639.8C562.801 641.827 563.335 643.747 564.401 645.56C565.468 647.267 566.908 648.653 568.721 649.72C570.535 650.787 572.455 651.32 574.481 651.32ZM600.721 680.28C596.455 680.28 593.255 679.64 591.121 678.36C588.988 677.08 587.548 675.053 586.801 672.28V577.08C586.801 574.733 586.908 572.44 587.121 570.2C587.441 567.96 588.561 566.147 590.481 564.76C592.401 563.267 595.761 562.52 600.561 562.52C605.468 562.52 608.881 563.213 610.801 564.6C612.828 565.987 614.055 567.8 614.481 570.04C614.908 572.173 615.121 574.467 615.121 576.92V665.72C615.121 668.067 614.908 670.36 614.481 672.6C614.055 674.84 612.828 676.707 610.801 678.2C608.881 679.587 605.521 680.28 600.721 680.28ZM639.875 680.44C635.075 680.44 631.662 679.747 629.635 678.36C627.608 676.867 626.382 675 625.955 672.76C625.635 670.52 625.475 668.227 625.475 665.88V613.72C625.475 611.373 625.688 609.133 626.115 607C626.542 604.76 627.768 602.947 629.795 601.56C631.822 600.067 635.235 599.32 640.035 599.32C644.835 599.32 648.195 600.067 650.115 601.56C652.142 602.947 653.368 604.76 653.795 607C654.222 609.24 654.435 611.587 654.435 614.04V666.04C654.435 668.387 654.222 670.68 653.795 672.92C653.368 675.16 652.142 676.973 650.115 678.36C648.195 679.747 644.782 680.44 639.875 680.44ZM639.875 591.48C635.075 591.48 631.662 590.787 629.635 589.4C627.608 587.907 626.382 586.04 625.955 583.8C625.635 581.56 625.475 579.267 625.475 576.92C625.475 574.467 625.688 572.173 626.115 570.04C626.542 567.8 627.768 565.987 629.795 564.6C631.822 563.213 635.235 562.52 640.035 562.52C644.835 562.52 648.195 563.267 650.115 564.76C652.142 566.147 653.368 567.96 653.795 570.2C654.222 572.44 654.435 574.733 654.435 577.08C654.435 579.427 654.222 581.72 653.795 583.96C653.368 586.2 652.142 588.013 650.115 589.4C648.195 590.787 644.782 591.48 639.875 591.48ZM678.911 680.44C674.111 680.44 670.698 679.747 668.671 678.36C666.645 676.867 665.418 675 664.991 672.76C664.671 670.52 664.511 668.227 664.511 665.88V613.56C664.511 611.107 664.725 608.813 665.151 606.68C665.578 604.44 666.805 602.627 668.831 601.24C670.858 599.853 674.325 599.16 679.231 599.16C684.031 599.16 687.498 600.12 689.631 602.04C691.871 603.853 692.991 606.84 692.991 611L690.271 610.2C690.271 610.2 690.645 609.667 691.391 608.6C692.245 607.427 693.418 606.093 694.911 604.6C696.511 603.107 698.431 601.827 700.671 600.76C702.911 599.587 705.471 599 708.351 599C711.658 599 714.698 599.427 717.471 600.28C720.245 601.133 722.751 602.467 724.991 604.28C727.338 605.987 729.365 608.12 731.071 610.68C732.245 609.293 733.845 607.693 735.871 605.88C737.898 604.067 740.298 602.467 743.071 601.08C745.951 599.693 749.151 599 752.671 599C758.965 599 764.298 600.6 768.671 603.8C773.151 607 776.511 611.64 778.751 617.72C781.098 623.8 782.271 631.16 782.271 639.8V665.88C782.271 668.227 782.058 670.52 781.631 672.76C781.205 675 779.978 676.867 777.951 678.36C775.925 679.747 772.458 680.44 767.551 680.44C762.751 680.44 759.338 679.693 757.311 678.2C755.285 676.707 754.058 674.84 753.631 672.6C753.311 670.36 753.151 668.067 753.151 665.72V639.64C753.151 637.08 752.831 635 752.191 633.4C751.658 631.693 750.805 630.413 749.631 629.56C748.565 628.707 747.178 628.28 745.471 628.28C743.658 628.28 742.165 628.653 740.991 629.4C739.925 630.147 739.125 631.373 738.591 633.08C738.165 634.68 737.951 636.92 737.951 639.8V665.88C737.951 668.227 737.738 670.52 737.311 672.76C736.885 675 735.658 676.867 733.631 678.36C731.605 679.747 728.138 680.44 723.231 680.44C718.431 680.44 715.018 679.693 712.991 678.2C710.965 676.707 709.738 674.84 709.311 672.6C708.991 670.36 708.831 668.067 708.831 665.72V639.64C708.831 637.08 708.565 634.947 708.031 633.24C707.498 631.533 706.645 630.307 705.471 629.56C704.405 628.707 702.965 628.28 701.151 628.28C699.018 628.28 697.418 628.813 696.351 629.88C695.285 630.947 694.538 632.333 694.111 634.04C693.791 635.747 693.631 637.613 693.631 639.64V666.04C693.631 668.387 693.418 670.68 692.991 672.92C692.565 675.16 691.338 676.973 689.311 678.36C687.285 679.747 683.818 680.44 678.911 680.44Z" fill="#F9E7D9"/>
<path d="M647.18 332.737C647.18 311.559 664.348 294.392 685.525 294.392C706.703 294.392 723.87 311.559 723.87 332.737V480.766C723.87 501.944 706.703 519.111 685.525 519.111C664.348 519.111 647.18 501.944 647.18 480.766V332.737Z" fill="#47982B"/>
<path d="M606.133 348.762C597.775 340.404 597.775 326.853 606.133 318.495C614.491 310.138 628.042 310.138 636.4 318.495L681.8 363.896C690.158 372.254 690.158 385.805 681.8 394.163C673.442 402.52 659.892 402.52 651.534 394.163L606.133 348.762Z" fill="#47982B"/>
<rect x="711.333" y="453.831" width="42.8037" height="107.009" rx="21.4019" transform="rotate(-135 711.333 453.831)" fill="#47982B"/>
<ellipse cx="711.333" cy="302.333" rx="16.3333" ry="16.3333" fill="#FEC013"/>
</svg>
